#define 1_width 32
#define 1_height 32
static unsigned char 1_bits[] = {
   0x00, 0xc0, 0x00, 0x00, 0x00, 0xe0, 0x01, 0x00, 0x00, 0x60, 0x02, 0x00,
   0x00, 0x40, 0x02, 0x00, 0x00, 0xf0, 0x03, 0x00, 0x00, 0xfc, 0x0f, 0x00,
   0x00, 0x3e, 0x1f, 0x00, 0x00, 0x06, 0x78, 0x00, 0x00, 0x03, 0xe0, 0x00,
   0x80, 0x01, 0xc0, 0x01, 0x80, 0x01, 0x80, 0x01, 0x80, 0x01, 0x00, 0x03,
   0x80, 0x01, 0x00, 0x03, 0x80, 0x01, 0x80, 0x03, 0x80, 0x03, 0xc0, 0x03,
   0x80, 0x1f, 0xfc, 0x07, 0x80, 0xff, 0xff, 0x06, 0x80, 0xff, 0x7f, 0x06,
   0x00, 0xf3, 0x1f, 0x02, 0x00, 0x07, 0x00, 0x03, 0x00, 0x0e, 0x80, 0x03,
   0x00, 0x0c, 0x80, 0x01, 0x00, 0x1c, 0xc0, 0x00, 0x00, 0xf8, 0xc1, 0x00,
   0x00, 0xf0, 0x7f, 0x00, 0x00, 0x80, 0x3f, 0x00, 0x00, 0x00, 0x00, 0x00,
   0x00, 0x00, 0x00, 0x00, 0x00, 0x00, 0x00, 0x00, 0x00, 0x00, 0x00, 0x00,
   0x00, 0x00, 0x00, 0x00, 0x00, 0x00, 0x00, 0x00 };
