#define 5_width 32
#define 5_height 32
static unsigned char 5_bits[] = {
   0x00, 0x00, 0x00, 0x00, 0x00, 0x00, 0x00, 0x00, 0x00, 0x00, 0x00, 0x00,
   0x00, 0x00, 0x00, 0x00, 0x00, 0x00, 0x00, 0x00, 0x00, 0x00, 0xfc, 0x00,
   0x00, 0xf0, 0xff, 0x00, 0x00, 0xf8, 0xc0, 0x01, 0x00, 0x18, 0x80, 0x01,
   0x00, 0x18, 0x80, 0x01, 0x00, 0x18, 0x80, 0x01, 0x00, 0x30, 0x80, 0x03,
   0x00, 0x30, 0x00, 0x03, 0x00, 0x70, 0x00, 0x07, 0x00, 0x60, 0x00, 0x06,
   0x00, 0x60, 0x00, 0x06, 0x00, 0x60, 0x00, 0x06, 0x00, 0x60, 0x00, 0x06,
   0x00, 0x7c, 0x00, 0x06, 0x00, 0x7f, 0x00, 0x06, 0x80, 0x23, 0x00, 0x06,
   0x80, 0x01, 0x00, 0x06, 0x80, 0x01, 0x00, 0x06, 0x80, 0x01, 0x00, 0x02,
   0x80, 0x01, 0x00, 0x03, 0x80, 0x01, 0xc0, 0x03, 0x80, 0xe3, 0xf8, 0x01,
   0x00, 0xff, 0x1f, 0x00, 0x00, 0xfe, 0x0f, 0x00, 0x00, 0x00, 0x00, 0x00,
   0x00, 0x00, 0x00, 0x00, 0x00, 0x00, 0x00, 0x00 };
